# xmcd
#
# Track frame offsets: 
#        150
#        15330
#        38210
#        50535
#        66245
#        81470
#        97805
#        115140
#        132478
#        147377
#
# Disc length: 2145 seconds
#
# Revision: 0
# Processed by: cddbd v1.5.1PL2 Copyright (c) Steve Scherf et al.
# Submitted via: ExactAudioCopy v0.95b3
#
DISCID=87085f0a
DTITLE=Little Dickie Dean - Falling In Love With My Hand
DYEAR=1994
DGENRE=Blues
TTITLE0=Falling In Love With My Hand
TTITLE1=Submarine
TTITLE2=Love Man
TTITLE3=Blow Dry
TTITLE4=You Make It So Hard On Me
TTITLE5=I Need Money
TTITLE6=It Broke My Heart
TTITLE7=Drop Your Laundry
TTITLE8=Mama's Ugly Baby
TTITLE9=I Can't Put My Finger On It
EXTD=
EXTT0=
EXTT1=
EXTT2=
EXTT3=
EXTT4=
EXTT5=
EXTT6=
EXTT7=
EXTT8=
EXTT9=
PLAYORDER=
